<?xml version="1.0" encoding="UTF-8" standalone="no"?>
<!DOCTYPE svg PUBLIC "-//W3C//DTD SVG 1.1//EN"
 "http://www.w3.org/Graphics/SVG/1.1/DTD/svg11.dtd">
<!-- Generated by graphviz version 2.36.0 (20140111.2315)
 -->
<!-- Title: G Pages: 1 -->
<svg width="460pt" height="67pt"
 viewBox="0.00 0.00 460.00 67.00" xmlns="http://www.w3.org/2000/svg" xmlns:xlink="http://www.w3.org/1999/xlink">
<g id="graph0" class="graph" transform="scale(1 1) rotate(0) translate(4 63)">
<title>G</title>
<!-- c1 -->
<g id="node1" class="node"><title>c1</title>
<polygon fill="none" stroke="black" points="8,-28 8,-54 93,-54 93,-28 8,-28"/>
<text text-anchor="start" x="13.5" y="-37.3" font-family="Times,serif" font-size="14.00">Chronometer</text>
<polygon fill="none" stroke="black" points="93,-28 93,-54 124,-54 124,-28 93,-28"/>
<text text-anchor="start" x="98" y="-37.3" font-family="Times,serif" font-size="14.00">tick</text>
</g>
<!-- t1 -->
<g id="node2" class="node"><title>t1</title>
<polygon fill="none" stroke="black" points="177,-28 177,-54 224,-54 224,-28 177,-28"/>
<text text-anchor="start" x="190" y="-37.3" font-family="Times,serif" font-size="14.00">tick</text>
<polygon fill="none" stroke="black" points="224,-3 224,-54 290,-54 290,-3 224,-3"/>
<text text-anchor="start" x="229" y="-24.8" font-family="Times,serif" font-size="14.00">Vector2D</text>
<polygon fill="none" stroke="black" points="290,-28 290,-54 318,-54 318,-28 290,-28"/>
<text text-anchor="start" x="295" y="-37.3" font-family="Times,serif" font-size="14.00">out</text>
<polygon fill="none" stroke="black" points="177,-3 177,-28 224,-28 224,-3 177,-3"/>
<text text-anchor="start" x="182.5" y="-11.8" font-family="Times,serif" font-size="14.00">values</text>
<polygon fill="none" stroke="black" points="290,-3 290,-28 318,-28 318,-3 290,-3"/>
</g>
<!-- c1&#45;&gt;t1 -->
<g id="edge1" class="edge"><title>c1:tick_out&#45;&gt;t1:tick_in</title>
<path fill="none" stroke="black" d="M133.211,-41C146.296,-41 153.301,-41 165.781,-41"/>
<ellipse fill="black" stroke="black" cx="129" cy="-41" rx="4" ry="4"/>
<polygon fill="black" stroke="black" points="166,-44.5001 176,-41 166,-37.5001 166,-44.5001"/>
</g>
<!-- v1 -->
<g id="node3" class="node"><title>v1</title>
<polygon fill="none" stroke="black" points="370,-28 370,-54 403,-54 403,-28 370,-28"/>
<text text-anchor="start" x="375.5" y="-37.3" font-family="Times,serif" font-size="14.00">size</text>
<polygon fill="none" stroke="black" points="403,-28 403,-54 444,-54 444,-28 403,-28"/>
<text text-anchor="start" x="408" y="-37.3" font-family="Times,serif" font-size="14.00">View</text>
</g>
<!-- t1&#45;&gt;v1 -->
<g id="edge2" class="edge"><title>t1:out&#45;&gt;v1:size</title>
<path fill="none" stroke="black" d="M327.05,-41C339.878,-41 346.746,-41 358.981,-41"/>
<ellipse fill="black" stroke="black" cx="323" cy="-41" rx="4" ry="4"/>
<polygon fill="black" stroke="black" points="359,-44.5001 369,-41 359,-37.5001 359,-44.5001"/>
</g>
</g>
</svg>
